<mxfile host="app.diagrams.net" modified="2021-01-23T09:50:27.904Z" agent="5.0 (Windows NT 10.0; Win64; x64) AppleWebKit/537.36 (KHTML, like Gecko) Chrome/87.0.4280.141 Safari/537.36" etag="ouEA2SIumSfwXd5TIZY_" version="14.2.7" type="github">
  <diagram id="Ui4I-p-PomPHRxhMgURq" name="Page-1">
    <mxGraphModel dx="1422" dy="737" grid="1" gridSize="10" guides="1" tooltips="1" connect="1" arrows="1" fold="1" page="1" pageScale="1" pageWidth="827" pageHeight="1169" math="0" shadow="0">
      <root>
        <mxCell id="0" />
        <mxCell id="1" parent="0" />
        <mxCell id="b9qbWGyHtpTypDYCe_0p-3" style="edgeStyle=orthogonalEdgeStyle;rounded=0;orthogonalLoop=1;jettySize=auto;html=1;entryX=0.5;entryY=0;entryDx=0;entryDy=0;" parent="1" source="b9qbWGyHtpTypDYCe_0p-1" target="b9qbWGyHtpTypDYCe_0p-2" edge="1">
          <mxGeometry relative="1" as="geometry" />
        </mxCell>
        <mxCell id="b9qbWGyHtpTypDYCe_0p-1" value="Start" style="html=1;dashed=0;whitespace=wrap;shape=mxgraph.dfd.start" parent="1" vertex="1">
          <mxGeometry x="358" y="93" width="80" height="30" as="geometry" />
        </mxCell>
        <mxCell id="b9qbWGyHtpTypDYCe_0p-5" style="edgeStyle=orthogonalEdgeStyle;rounded=0;orthogonalLoop=1;jettySize=auto;html=1;entryX=0.5;entryY=0;entryDx=0;entryDy=0;" parent="1" source="b9qbWGyHtpTypDYCe_0p-2" target="b9qbWGyHtpTypDYCe_0p-4" edge="1">
          <mxGeometry relative="1" as="geometry" />
        </mxCell>
        <mxCell id="b9qbWGyHtpTypDYCe_0p-2" value="Menunggu input suara dan userid" style="rounded=0;whiteSpace=wrap;html=1;" parent="1" vertex="1">
          <mxGeometry x="338" y="173" width="120" height="60" as="geometry" />
        </mxCell>
        <mxCell id="b9qbWGyHtpTypDYCe_0p-26" style="edgeStyle=orthogonalEdgeStyle;rounded=0;orthogonalLoop=1;jettySize=auto;html=1;entryX=0.5;entryY=0;entryDx=0;entryDy=0;" parent="1" source="b9qbWGyHtpTypDYCe_0p-4" target="b9qbWGyHtpTypDYCe_0p-25" edge="1">
          <mxGeometry relative="1" as="geometry" />
        </mxCell>
        <mxCell id="b9qbWGyHtpTypDYCe_0p-4" value="Input data suara&lt;br&gt;dan userid" style="shape=parallelogram;perimeter=parallelogramPerimeter;whiteSpace=wrap;html=1;fixedSize=1;" parent="1" vertex="1">
          <mxGeometry x="338" y="273" width="120" height="60" as="geometry" />
        </mxCell>
        <mxCell id="b9qbWGyHtpTypDYCe_0p-11" style="edgeStyle=orthogonalEdgeStyle;rounded=0;orthogonalLoop=1;jettySize=auto;html=1;entryX=0.5;entryY=0;entryDx=0;entryDy=0;" parent="1" source="b9qbWGyHtpTypDYCe_0p-6" target="b9qbWGyHtpTypDYCe_0p-12" edge="1">
          <mxGeometry relative="1" as="geometry">
            <mxPoint x="398" y="633" as="targetPoint" />
            <Array as="points" />
          </mxGeometry>
        </mxCell>
        <mxCell id="b9qbWGyHtpTypDYCe_0p-6" value="Ekstraksi MFCC" style="rounded=0;whiteSpace=wrap;html=1;" parent="1" vertex="1">
          <mxGeometry x="174" y="558" width="120" height="60" as="geometry" />
        </mxCell>
        <mxCell id="7w21YsKcWR0IpA3NrVvu-3" style="edgeStyle=orthogonalEdgeStyle;rounded=0;orthogonalLoop=1;jettySize=auto;html=1;entryX=0.5;entryY=0;entryDx=0;entryDy=0;" edge="1" parent="1" source="b9qbWGyHtpTypDYCe_0p-8" target="b9qbWGyHtpTypDYCe_0p-6">
          <mxGeometry relative="1" as="geometry" />
        </mxCell>
        <mxCell id="b9qbWGyHtpTypDYCe_0p-8" value="Data suara &lt;br&gt;pemilik akun" style="shape=dataStorage;whiteSpace=wrap;html=1;fixedSize=1;" parent="1" vertex="1">
          <mxGeometry x="174" y="463" width="120" height="60" as="geometry" />
        </mxCell>
        <mxCell id="b9qbWGyHtpTypDYCe_0p-13" style="edgeStyle=orthogonalEdgeStyle;rounded=0;orthogonalLoop=1;jettySize=auto;html=1;entryX=0.5;entryY=0;entryDx=0;entryDy=0;" parent="1" source="b9qbWGyHtpTypDYCe_0p-12" target="b9qbWGyHtpTypDYCe_0p-14" edge="1">
          <mxGeometry relative="1" as="geometry">
            <mxPoint x="398" y="723" as="targetPoint" />
          </mxGeometry>
        </mxCell>
        <mxCell id="b9qbWGyHtpTypDYCe_0p-12" value="Preprocess&lt;br&gt;MFCC" style="shape=parallelogram;perimeter=parallelogramPerimeter;whiteSpace=wrap;html=1;fixedSize=1;" parent="1" vertex="1">
          <mxGeometry x="174" y="653" width="120" height="60" as="geometry" />
        </mxCell>
        <mxCell id="7w21YsKcWR0IpA3NrVvu-13" style="edgeStyle=orthogonalEdgeStyle;rounded=0;orthogonalLoop=1;jettySize=auto;html=1;entryX=0;entryY=0.5;entryDx=0;entryDy=0;" edge="1" parent="1" source="b9qbWGyHtpTypDYCe_0p-14" target="7w21YsKcWR0IpA3NrVvu-12">
          <mxGeometry relative="1" as="geometry" />
        </mxCell>
        <mxCell id="7w21YsKcWR0IpA3NrVvu-15" style="edgeStyle=orthogonalEdgeStyle;rounded=0;orthogonalLoop=1;jettySize=auto;html=1;entryX=0;entryY=0.5;entryDx=0;entryDy=0;" edge="1" parent="1" source="b9qbWGyHtpTypDYCe_0p-14" target="b9qbWGyHtpTypDYCe_0p-39">
          <mxGeometry relative="1" as="geometry">
            <Array as="points">
              <mxPoint x="234" y="883" />
            </Array>
          </mxGeometry>
        </mxCell>
        <mxCell id="b9qbWGyHtpTypDYCe_0p-14" value="Training GMM" style="rounded=0;whiteSpace=wrap;html=1;" parent="1" vertex="1">
          <mxGeometry x="174" y="753" width="120" height="60" as="geometry" />
        </mxCell>
        <mxCell id="b9qbWGyHtpTypDYCe_0p-28" style="edgeStyle=orthogonalEdgeStyle;rounded=0;orthogonalLoop=1;jettySize=auto;html=1;entryX=0.5;entryY=0;entryDx=0;entryDy=0;" parent="1" source="b9qbWGyHtpTypDYCe_0p-25" target="b9qbWGyHtpTypDYCe_0p-29" edge="1">
          <mxGeometry relative="1" as="geometry">
            <mxPoint x="564" y="403" as="targetPoint" />
          </mxGeometry>
        </mxCell>
        <mxCell id="7w21YsKcWR0IpA3NrVvu-1" style="edgeStyle=orthogonalEdgeStyle;rounded=0;orthogonalLoop=1;jettySize=auto;html=1;entryX=0.5;entryY=0;entryDx=0;entryDy=0;" edge="1" parent="1" source="b9qbWGyHtpTypDYCe_0p-25" target="b9qbWGyHtpTypDYCe_0p-8">
          <mxGeometry relative="1" as="geometry">
            <Array as="points">
              <mxPoint x="234" y="403" />
            </Array>
          </mxGeometry>
        </mxCell>
        <mxCell id="b9qbWGyHtpTypDYCe_0p-25" value="userid exist?" style="rhombus;whiteSpace=wrap;html=1;" parent="1" vertex="1">
          <mxGeometry x="358" y="363" width="80" height="80" as="geometry" />
        </mxCell>
        <mxCell id="b9qbWGyHtpTypDYCe_0p-31" style="edgeStyle=orthogonalEdgeStyle;rounded=0;orthogonalLoop=1;jettySize=auto;html=1;entryX=0.5;entryY=0;entryDx=0;entryDy=0;" parent="1" source="b9qbWGyHtpTypDYCe_0p-29" target="b9qbWGyHtpTypDYCe_0p-32" edge="1">
          <mxGeometry relative="1" as="geometry">
            <mxPoint x="594" y="523" as="targetPoint" />
          </mxGeometry>
        </mxCell>
        <mxCell id="b9qbWGyHtpTypDYCe_0p-29" value="Ekstraksi MFCC" style="rounded=0;whiteSpace=wrap;html=1;" parent="1" vertex="1">
          <mxGeometry x="534" y="433" width="120" height="60" as="geometry" />
        </mxCell>
        <mxCell id="b9qbWGyHtpTypDYCe_0p-34" style="edgeStyle=orthogonalEdgeStyle;rounded=0;orthogonalLoop=1;jettySize=auto;html=1;entryX=0.5;entryY=0;entryDx=0;entryDy=0;" parent="1" source="b9qbWGyHtpTypDYCe_0p-32" target="b9qbWGyHtpTypDYCe_0p-33" edge="1">
          <mxGeometry relative="1" as="geometry" />
        </mxCell>
        <mxCell id="b9qbWGyHtpTypDYCe_0p-32" value="Preprocess&lt;br&gt;MFCC" style="shape=parallelogram;perimeter=parallelogramPerimeter;whiteSpace=wrap;html=1;fixedSize=1;" parent="1" vertex="1">
          <mxGeometry x="534" y="533" width="120" height="60" as="geometry" />
        </mxCell>
        <mxCell id="b9qbWGyHtpTypDYCe_0p-37" style="edgeStyle=orthogonalEdgeStyle;rounded=0;orthogonalLoop=1;jettySize=auto;html=1;entryX=0.5;entryY=0;entryDx=0;entryDy=0;" parent="1" source="b9qbWGyHtpTypDYCe_0p-33" target="b9qbWGyHtpTypDYCe_0p-38" edge="1">
          <mxGeometry relative="1" as="geometry">
            <mxPoint x="594" y="733" as="targetPoint" />
          </mxGeometry>
        </mxCell>
        <mxCell id="b9qbWGyHtpTypDYCe_0p-33" value="Verifikasi menggunakan pre-trained GMM" style="rounded=0;whiteSpace=wrap;html=1;" parent="1" vertex="1">
          <mxGeometry x="534" y="633" width="120" height="60" as="geometry" />
        </mxCell>
        <mxCell id="b9qbWGyHtpTypDYCe_0p-40" style="edgeStyle=orthogonalEdgeStyle;rounded=0;orthogonalLoop=1;jettySize=auto;html=1;entryX=1;entryY=0.5;entryDx=0;entryDy=0;exitX=0.5;exitY=1;exitDx=0;exitDy=0;" parent="1" source="b9qbWGyHtpTypDYCe_0p-38" target="b9qbWGyHtpTypDYCe_0p-39" edge="1">
          <mxGeometry relative="1" as="geometry">
            <Array as="points">
              <mxPoint x="594" y="883" />
            </Array>
          </mxGeometry>
        </mxCell>
        <mxCell id="b9qbWGyHtpTypDYCe_0p-38" value="Menghitung prediksi" style="rounded=0;whiteSpace=wrap;html=1;" parent="1" vertex="1">
          <mxGeometry x="534" y="733" width="120" height="60" as="geometry" />
        </mxCell>
        <mxCell id="b9qbWGyHtpTypDYCe_0p-44" style="edgeStyle=orthogonalEdgeStyle;rounded=0;orthogonalLoop=1;jettySize=auto;html=1;entryX=0.5;entryY=0;entryDx=0;entryDy=0;" parent="1" source="b9qbWGyHtpTypDYCe_0p-39" target="b9qbWGyHtpTypDYCe_0p-43" edge="1">
          <mxGeometry relative="1" as="geometry" />
        </mxCell>
        <mxCell id="b9qbWGyHtpTypDYCe_0p-39" value="Send User Creation/Verfication Result" style="rounded=0;whiteSpace=wrap;html=1;" parent="1" vertex="1">
          <mxGeometry x="358" y="853" width="120" height="60" as="geometry" />
        </mxCell>
        <mxCell id="b9qbWGyHtpTypDYCe_0p-46" style="edgeStyle=orthogonalEdgeStyle;rounded=0;orthogonalLoop=1;jettySize=auto;html=1;entryX=0.5;entryY=0.5;entryDx=0;entryDy=-15;entryPerimeter=0;" parent="1" source="b9qbWGyHtpTypDYCe_0p-43" target="b9qbWGyHtpTypDYCe_0p-45" edge="1">
          <mxGeometry relative="1" as="geometry" />
        </mxCell>
        <mxCell id="b9qbWGyHtpTypDYCe_0p-47" style="edgeStyle=orthogonalEdgeStyle;rounded=0;orthogonalLoop=1;jettySize=auto;html=1;entryX=1;entryY=0.5;entryDx=0;entryDy=0;exitX=1;exitY=0.5;exitDx=0;exitDy=0;" parent="1" source="b9qbWGyHtpTypDYCe_0p-43" target="b9qbWGyHtpTypDYCe_0p-2" edge="1">
          <mxGeometry relative="1" as="geometry">
            <Array as="points">
              <mxPoint x="740" y="973" />
              <mxPoint x="740" y="203" />
            </Array>
          </mxGeometry>
        </mxCell>
        <mxCell id="b9qbWGyHtpTypDYCe_0p-43" value="Shutdown?" style="rhombus;whiteSpace=wrap;html=1;" parent="1" vertex="1">
          <mxGeometry x="378" y="933" width="80" height="80" as="geometry" />
        </mxCell>
        <mxCell id="b9qbWGyHtpTypDYCe_0p-45" value="End" style="html=1;dashed=0;whitespace=wrap;shape=mxgraph.dfd.start" parent="1" vertex="1">
          <mxGeometry x="378" y="1043" width="80" height="30" as="geometry" />
        </mxCell>
        <mxCell id="7w21YsKcWR0IpA3NrVvu-8" value="No" style="text;html=1;align=center;verticalAlign=middle;resizable=0;points=[];autosize=1;" vertex="1" parent="1">
          <mxGeometry x="303" y="383" width="30" height="20" as="geometry" />
        </mxCell>
        <mxCell id="7w21YsKcWR0IpA3NrVvu-9" value="Yes" style="text;html=1;align=center;verticalAlign=middle;resizable=0;points=[];autosize=1;" vertex="1" parent="1">
          <mxGeometry x="485" y="383" width="40" height="20" as="geometry" />
        </mxCell>
        <mxCell id="7w21YsKcWR0IpA3NrVvu-10" value="No" style="text;html=1;align=center;verticalAlign=middle;resizable=0;points=[];autosize=1;" vertex="1" parent="1">
          <mxGeometry x="465" y="953" width="30" height="20" as="geometry" />
        </mxCell>
        <mxCell id="7w21YsKcWR0IpA3NrVvu-11" value="Yes" style="text;html=1;align=center;verticalAlign=middle;resizable=0;points=[];autosize=1;" vertex="1" parent="1">
          <mxGeometry x="415" y="1013" width="40" height="20" as="geometry" />
        </mxCell>
        <mxCell id="7w21YsKcWR0IpA3NrVvu-14" style="edgeStyle=orthogonalEdgeStyle;rounded=0;orthogonalLoop=1;jettySize=auto;html=1;entryX=0;entryY=0.5;entryDx=0;entryDy=0;" edge="1" parent="1" source="7w21YsKcWR0IpA3NrVvu-12" target="b9qbWGyHtpTypDYCe_0p-33">
          <mxGeometry relative="1" as="geometry" />
        </mxCell>
        <mxCell id="7w21YsKcWR0IpA3NrVvu-12" value="GMM Models" style="shape=dataStorage;whiteSpace=wrap;html=1;fixedSize=1;" vertex="1" parent="1">
          <mxGeometry x="353.5" y="633" width="120" height="60" as="geometry" />
        </mxCell>
      </root>
    </mxGraphModel>
  </diagram>
</mxfile>
